<mxfile host="Electron" modified="2023-06-01T16:02:13.217Z" agent="Mozilla/5.0 (Windows NT 10.0; Win64; x64) AppleWebKit/537.36 (KHTML, like Gecko) draw.io/21.2.8 Chrome/112.0.5615.165 Electron/24.2.0 Safari/537.36" version="21.2.8" etag="D81asrm0f8txcFgXcuQz" type="device">
  <diagram name="Page-1" id="Page-1">
    <mxGraphModel dx="1036" dy="606" grid="1" gridSize="10" guides="1" tooltips="1" connect="1" arrows="1" fold="1" page="1" pageScale="1" pageWidth="850" pageHeight="1100" math="0" shadow="0">
      <root>
        <mxCell id="0" />
        <mxCell id="1" parent="0" />
        <UserObject label="&lt;div style=&quot;font-size: 1px&quot;&gt;&lt;p style=&quot;text-align:right;margin-left:0;margin-right:0;margin-top:0px;margin-bottom:0px;text-indent:0;vertical-align:bottom;direction:ltr;&quot;&gt;&lt;font style=&quot;font-size:14.11px;font-family:Calibri;color:#3f3f3f;direction:ltr;letter-spacing:0px;line-height:120%;opacity:1&quot;&gt;Client&lt;br/&gt;&lt;/font&gt;&lt;/p&gt;&lt;/div&gt;" tags="Background" id="2">
          <mxCell style="verticalAlign=bottom;align=right;overflow=width;vsdxID=50;fillColor=#e2efd9;gradientColor=none;shape=stencil(nZBLDoAgDERP0z3SIyjew0SURgSD+Lu9kMZoXLhwN9O+tukAlrNpJg1SzDH4QW/URgNYgZTkjA4UkwJUgGXng+6DX1zLfmoymdXo17xh5zmRJ6Q42BWCfc2oJfdAr+Yv+AP9Cb7OJ3H/2JG1HNGz/84klThPVCc=);strokeColor=none;points=[[1,0.5,0],[0.5,0,0],[0.5,0.5,0],[0.5,0.5,0]];labelBackgroundColor=none;rounded=0;html=1;whiteSpace=wrap;" parent="1" vertex="1">
            <mxGeometry x="29" y="26" width="113" height="504" as="geometry" />
          </mxCell>
        </UserObject>
        <UserObject label="&lt;div style=&quot;font-size: 1px&quot;&gt;&lt;font style=&quot;font-size:14.11px;font-family:Calibri;color:#feffff;direction:ltr;letter-spacing:0px;line-height:120%;opacity:1&quot;&gt;IPA Client&lt;br/&gt;&lt;/font&gt;&lt;/div&gt;" tags="Background" id="3">
          <mxCell style="verticalAlign=bottom;align=center;overflow=width;vsdxID=1;fillColor=#70ad47;gradientColor=none;shape=stencil(nZBLDoAgDERP0z3SIyjew0SURgSD+Lu9kMZoXLhwN9O+tukAlrNpJg1SzDH4QW/URgNYgZTkjA4UkwJUgGXng+6DX1zLfmoymdXo17xh5zmRJ6Q42BWCfc2oJfdAr+Yv+AP9Cb7OJ3H/2JG1HNGz/84klThPVCc=);strokeColor=none;points=[[1,0.5,0],[0.5,0,0],[0.5,0.5,0],[0.5,0.5,0]];labelBackgroundColor=none;rounded=0;html=1;whiteSpace=wrap;" parent="1" vertex="1">
            <mxGeometry x="41" y="172" width="88" height="108" as="geometry" />
          </mxCell>
        </UserObject>
        <UserObject label="&lt;div style=&quot;font-size: 1px&quot;&gt;&lt;font style=&quot;font-size:14.11px;font-family:Calibri;color:#feffff;direction:ltr;letter-spacing:0px;line-height:120%;opacity:1&quot;&gt;Local Data Providers&lt;br/&gt;&lt;/font&gt;&lt;/div&gt;" tags="Background" id="4">
          <mxCell style="verticalAlign=middle;align=center;overflow=width;vsdxID=51;fillColor=#a5a5a5;gradientColor=none;shape=stencil(nZBLDoAgDERP0z3SIyjew0SURgSD+Lu9kMZoXLhwN9O+tukAlrNpJg1SzDH4QW/URgNYgZTkjA4UkwJUgGXng+6DX1zLfmoymdXo17xh5zmRJ6Q42BWCfc2oJfdAr+Yv+AP9Cb7OJ3H/2JG1HNGz/84klThPVCc=);strokeColor=none;points=[[1,0.5,0],[0.5,0,0],[0.5,0.5,0],[0.5,0.5,0]];labelBackgroundColor=none;rounded=0;html=1;whiteSpace=wrap;" parent="1" vertex="1">
            <mxGeometry x="42" y="112" width="88" height="46" as="geometry" />
          </mxCell>
        </UserObject>
        <UserObject label="&lt;div style=&quot;font-size: 1px&quot;&gt;&lt;font style=&quot;font-size:14.11px;font-family:Calibri;color:#feffff;direction:ltr;letter-spacing:0px;line-height:120%;opacity:1&quot;&gt;Local Services&lt;br/&gt;&lt;/font&gt;&lt;/div&gt;" tags="Background" id="5">
          <mxCell style="verticalAlign=middle;align=center;overflow=width;vsdxID=52;fillColor=#a5a5a5;gradientColor=none;shape=stencil(nZBLDoAgDERP0z3SIyjew0SURgSD+Lu9kMZoXLhwN9O+tukAlrNpJg1SzDH4QW/URgNYgZTkjA4UkwJUgGXng+6DX1zLfmoymdXo17xh5zmRJ6Q42BWCfc2oJfdAr+Yv+AP9Cb7OJ3H/2JG1HNGz/84klThPVCc=);strokeColor=none;points=[[1,0.5,0],[0.5,0,0],[0.5,0.5,0],[0.5,0.5,0]];labelBackgroundColor=none;rounded=0;html=1;whiteSpace=wrap;" parent="1" vertex="1">
            <mxGeometry x="42" y="57" width="88" height="46" as="geometry" />
          </mxCell>
        </UserObject>
        <UserObject label="&lt;div style=&quot;font-size: 1px&quot;&gt;&lt;font style=&quot;font-size:14.11px;font-family:Calibri;color:#feffff;direction:ltr;letter-spacing:0px;line-height:120%;opacity:1&quot;&gt;Speaker&lt;br/&gt;&lt;/font&gt;&lt;/div&gt;" tags="Background" id="6">
          <mxCell style="verticalAlign=bottom;align=center;overflow=width;vsdxID=53;fillColor=#70ad47;gradientColor=none;shape=stencil(nZBLDoAgDERP0z3SIyjew0SURgSD+Lu9kMZoXLhwN9O+tukAlrNpJg1SzDH4QW/URgNYgZTkjA4UkwJUgGXng+6DX1zLfmoymdXo17xh5zmRJ6Q42BWCfc2oJfdAr+Yv+AP9Cb7OJ3H/2JG1HNGz/84klThPVCc=);strokeColor=none;points=[[1,0.5,0],[0.5,0,0],[0.5,0.5,0],[0.5,0.5,0]];labelBackgroundColor=none;rounded=0;html=1;whiteSpace=wrap;" parent="1" vertex="1">
            <mxGeometry x="42" y="290" width="88" height="100" as="geometry" />
          </mxCell>
        </UserObject>
        <UserObject label="&lt;div style=&quot;font-size: 1px&quot;&gt;&lt;font style=&quot;font-size:14.11px;font-family:Calibri;color:#feffff;direction:ltr;letter-spacing:0px;line-height:120%;opacity:1&quot;&gt;Microphone&lt;br/&gt;&lt;/font&gt;&lt;/div&gt;" tags="Background" id="7">
          <mxCell style="verticalAlign=bottom;align=center;overflow=width;vsdxID=54;fillColor=#70ad47;gradientColor=none;shape=stencil(nZBLDoAgDERP0z3SIyjew0SURgSD+Lu9kMZoXLhwN9O+tukAlrNpJg1SzDH4QW/URgNYgZTkjA4UkwJUgGXng+6DX1zLfmoymdXo17xh5zmRJ6Q42BWCfc2oJfdAr+Yv+AP9Cb7OJ3H/2JG1HNGz/84klThPVCc=);strokeColor=none;points=[[1,0.5,0],[0.5,0,0],[0.5,0.5,0],[0.5,0.5,0]];labelBackgroundColor=none;rounded=0;html=1;whiteSpace=wrap;" parent="1" vertex="1">
            <mxGeometry x="42" y="400" width="88" height="100" as="geometry" />
          </mxCell>
        </UserObject>
        <UserObject label="&lt;div style=&quot;font-size: 1px&quot;&gt;&lt;font style=&quot;font-size:14.11px;font-family:Calibri;color:#feffff;direction:ltr;letter-spacing:0px;line-height:120%;opacity:1&quot;&gt;Local Service Registry&lt;br/&gt;&lt;/font&gt;&lt;/div&gt;" tags="Background" id="8">
          <mxCell style="verticalAlign=middle;align=center;overflow=width;vsdxID=55;fillColor=#538135;gradientColor=none;shape=stencil(nZBLDoAgDERP0z3SIyjew0SURgSD+Lu9kMZoXLhwN9O+tukAlrNpJg1SzDH4QW/URgNYgZTkjA4UkwJUgGXng+6DX1zLfmoymdXo17xh5zmRJ6Q42BWCfc2oJfdAr+Yv+AP9Cb7OJ3H/2JG1HNGz/84klThPVCc=);strokeColor=none;points=[[1,0.5,0],[0.5,0,0],[0.5,0.5,0],[0.5,0.5,0]];labelBackgroundColor=none;rounded=0;html=1;whiteSpace=wrap;" parent="1" vertex="1">
            <mxGeometry x="50" y="182" width="70" height="60" as="geometry" />
          </mxCell>
        </UserObject>
        <UserObject label="" tags="Annotations Connector" id="9">
          <mxCell parent="1" vertex="1" visible="0">
            <mxGeometry as="geometry" />
          </mxCell>
        </UserObject>
        <UserObject label="&lt;div style=&quot;font-size: 1px&quot;&gt;&lt;font style=&quot;font-size:14.11px;font-family:Calibri;color:#feffff;direction:ltr;letter-spacing:0px;line-height:120%;opacity:1&quot;&gt;Speaker&lt;br&gt;&lt;/font&gt;&lt;/div&gt;" tags="Background" id="BNtzQyk0dwLttiMeubV2-10">
          <mxCell style="verticalAlign=middle;align=center;overflow=width;vsdxID=55;fillColor=#538135;gradientColor=none;shape=stencil(nZBLDoAgDERP0z3SIyjew0SURgSD+Lu9kMZoXLhwN9O+tukAlrNpJg1SzDH4QW/URgNYgZTkjA4UkwJUgGXng+6DX1zLfmoymdXo17xh5zmRJ6Q42BWCfc2oJfdAr+Yv+AP9Cb7OJ3H/2JG1HNGz/84klThPVCc=);strokeColor=none;points=[[1,0.5,0],[0.5,0,0],[0.5,0.5,0],[0.5,0.5,0]];labelBackgroundColor=none;rounded=0;html=1;whiteSpace=wrap;" vertex="1" parent="1">
            <mxGeometry x="50" y="300" width="70" height="30" as="geometry" />
          </mxCell>
        </UserObject>
        <UserObject label="&lt;div style=&quot;font-size: 1px&quot;&gt;&lt;font style=&quot;font-size:14.11px;font-family:Calibri;color:#feffff;direction:ltr;letter-spacing:0px;line-height:120%;opacity:1&quot;&gt;Keyboard&lt;br&gt;&lt;/font&gt;&lt;/div&gt;" tags="Background" id="BNtzQyk0dwLttiMeubV2-11">
          <mxCell style="verticalAlign=middle;align=center;overflow=width;vsdxID=55;fillColor=#538135;gradientColor=none;shape=stencil(nZBLDoAgDERP0z3SIyjew0SURgSD+Lu9kMZoXLhwN9O+tukAlrNpJg1SzDH4QW/URgNYgZTkjA4UkwJUgGXng+6DX1zLfmoymdXo17xh5zmRJ6Q42BWCfc2oJfdAr+Yv+AP9Cb7OJ3H/2JG1HNGz/84klThPVCc=);strokeColor=none;points=[[1,0.5,0],[0.5,0,0],[0.5,0.5,0],[0.5,0.5,0]];labelBackgroundColor=none;rounded=0;html=1;whiteSpace=wrap;" vertex="1" parent="1">
            <mxGeometry x="51" y="340" width="70" height="30" as="geometry" />
          </mxCell>
        </UserObject>
        <UserObject label="&lt;div style=&quot;font-size: 1px&quot;&gt;&lt;font style=&quot;font-size:14.11px;font-family:Calibri;color:#feffff;direction:ltr;letter-spacing:0px;line-height:120%;opacity:1&quot;&gt;Microphone&lt;br&gt;&lt;/font&gt;&lt;/div&gt;" tags="Background" id="BNtzQyk0dwLttiMeubV2-12">
          <mxCell style="verticalAlign=middle;align=center;overflow=width;vsdxID=55;fillColor=#538135;gradientColor=none;shape=stencil(nZBLDoAgDERP0z3SIyjew0SURgSD+Lu9kMZoXLhwN9O+tukAlrNpJg1SzDH4QW/URgNYgZTkjA4UkwJUgGXng+6DX1zLfmoymdXo17xh5zmRJ6Q42BWCfc2oJfdAr+Yv+AP9Cb7OJ3H/2JG1HNGz/84klThPVCc=);strokeColor=none;points=[[1,0.5,0],[0.5,0,0],[0.5,0.5,0],[0.5,0.5,0]];labelBackgroundColor=none;rounded=0;html=1;whiteSpace=wrap;" vertex="1" parent="1">
            <mxGeometry x="52" y="410" width="70" height="30" as="geometry" />
          </mxCell>
        </UserObject>
        <UserObject label="&lt;div style=&quot;font-size: 1px&quot;&gt;&lt;font style=&quot;font-size:14.11px;font-family:Calibri;color:#feffff;direction:ltr;letter-spacing:0px;line-height:120%;opacity:1&quot;&gt;Screen&lt;br&gt;&lt;/font&gt;&lt;/div&gt;" tags="Background" id="BNtzQyk0dwLttiMeubV2-13">
          <mxCell style="verticalAlign=middle;align=center;overflow=width;vsdxID=55;fillColor=#538135;gradientColor=none;shape=stencil(nZBLDoAgDERP0z3SIyjew0SURgSD+Lu9kMZoXLhwN9O+tukAlrNpJg1SzDH4QW/URgNYgZTkjA4UkwJUgGXng+6DX1zLfmoymdXo17xh5zmRJ6Q42BWCfc2oJfdAr+Yv+AP9Cb7OJ3H/2JG1HNGz/84klThPVCc=);strokeColor=none;points=[[1,0.5,0],[0.5,0,0],[0.5,0.5,0],[0.5,0.5,0]];labelBackgroundColor=none;rounded=0;html=1;whiteSpace=wrap;" vertex="1" parent="1">
            <mxGeometry x="51" y="450" width="70" height="30" as="geometry" />
          </mxCell>
        </UserObject>
      </root>
    </mxGraphModel>
  </diagram>
</mxfile>
